<svg width="119" height="26" viewBox="0 0 119 26" fill="none" xmlns="http://www.w3.org/2000/svg">
<path d="M51.467 24.7838L46.7111 17.3632L42.1239 24.7838H39.6279L45.5643 15.5756L39.6953 6.36735H42.36L47.0484 13.6867L51.602 6.36735H54.0642L48.1952 15.4744L54.1317 24.7838H51.467Z" fill="#383838"/>
<path d="M18.2135 14.1994C17.7215 13.7303 17.1361 13.3355 16.475 13.0279C16.0281 12.8201 15.5676 12.6394 15.0976 12.4894C15.3714 12.3476 15.6472 12.1892 15.9233 12.016C16.4164 11.7042 16.8643 11.3126 17.2535 10.8518C17.6449 10.3899 17.9659 9.83984 18.2062 9.21845C18.4476 8.59381 18.5702 7.85801 18.5702 7.03384V6.96777C18.5702 5.46553 18.0447 4.17546 17.008 3.13412C16.345 2.46859 15.4721 1.93951 14.4166 1.56371C13.3696 1.18896 12.1567 1 10.8106 1H1V24.7136H11.308C12.5838 24.7136 13.7536 24.5604 14.787 24.257C15.8256 23.9515 16.7311 23.5148 17.4791 22.9595C18.2345 22.3979 18.8274 21.6998 19.2396 20.8853C19.6529 20.0696 19.8628 19.1458 19.8628 18.1401V18.073C19.8628 17.2447 19.7096 16.5014 19.4085 15.8633C19.1095 15.2303 18.7077 14.6698 18.2135 14.1994ZM3.23051 13.8069H10.8295C13.0653 13.8069 14.7859 14.19 15.9422 14.9458C17.0793 15.6901 17.6323 16.7147 17.6323 18.0772V18.1433C17.6323 19.5342 17.092 20.6049 15.9809 21.4142C14.8593 22.232 13.316 22.6467 11.3929 22.6467H3.23051V13.8069ZM14.7523 10.5569C14.2488 10.9368 13.6424 11.2318 12.9457 11.4345C12.2427 11.638 11.4632 11.741 10.6312 11.741H3.23051V3.06589H10.796C12.6069 3.06589 14.0022 3.4459 14.9454 4.19644C15.8844 4.9428 16.3407 5.89912 16.3407 7.11999V7.1871C16.3407 7.92304 16.1991 8.58222 15.9191 9.14495C15.641 9.70652 15.2487 10.181 14.7523 10.5569Z" fill="#383838"/>
<path d="M39.3355 11.9363C38.8823 10.8151 38.2391 9.81852 37.4232 8.97496C36.6096 8.1345 35.6363 7.45249 34.5323 6.94927C33.423 6.4451 32.1885 6.18917 30.8634 6.18917C29.5382 6.18917 28.2983 6.44388 27.1781 6.94819C26.0613 7.45128 25.0771 8.14433 24.2505 9.00956C23.4238 9.87493 22.7764 10.8823 22.3233 12.0025C21.87 13.1249 21.6401 14.3329 21.6401 15.594V15.6623C21.6401 16.9235 21.87 18.1325 22.3233 19.2538C22.7775 20.3773 23.4196 21.3727 24.2354 22.2142C25.0501 23.0567 26.0235 23.7378 27.1263 24.2398C28.2346 24.7441 29.4691 25 30.7954 25C32.1216 25 33.3615 24.7452 34.4806 24.2409C35.5963 23.7388 36.5816 23.0459 37.4071 22.1795C38.2337 21.3152 38.8823 20.3078 39.3355 19.1854C39.7887 18.0631 40.0185 16.854 40.0185 15.5928V15.5246C40.0185 14.2634 39.7887 13.0544 39.3355 11.9331M37.7244 15.6645C37.7244 16.6491 37.5517 17.5926 37.2107 18.4676C36.8719 19.3405 36.3938 20.1094 35.7917 20.7525C35.1907 21.3944 34.4579 21.9127 33.6151 22.2945C32.7745 22.675 31.8485 22.8681 30.8634 22.8681C29.8781 22.8681 28.9846 22.6804 28.1428 22.3106C27.3001 21.9409 26.5565 21.4214 25.9317 20.7675C25.308 20.1147 24.8138 19.3341 24.4619 18.4481C24.1113 17.5632 23.9332 16.6036 23.9332 15.5962V15.5278C23.9332 14.5432 24.1059 13.5999 24.4459 12.7257C24.7858 11.8518 25.2627 11.084 25.8659 10.441C26.4671 9.799 27.1986 9.27962 28.0425 8.89796C28.8832 8.51724 29.8091 8.3254 30.7954 8.3254C31.7816 8.3254 32.6741 8.51293 33.5148 8.88274C34.3575 9.25256 35.1011 9.77302 35.7259 10.4269C36.3496 11.0808 36.8448 11.8605 37.1956 12.7442C37.5463 13.6291 37.7244 14.5888 37.7244 15.5962V15.6645Z" fill="#383838"/>
<path d="M33.8367 12.8876C33.1023 12.0962 32.1025 11.6385 31.023 11.5974C29.9444 11.5575 28.9141 11.9407 28.122 12.6756C27.2481 13.487 26.7791 14.6354 26.8336 15.828C26.8777 16.7822 27.2596 17.6922 27.9102 18.3935C28.6455 19.185 29.6433 19.6437 30.7239 19.6836C31.8024 19.7235 32.8339 19.3403 33.6249 18.6056C34.4988 17.794 34.9678 16.6446 34.9132 15.4532C34.8691 14.5 34.4862 13.5889 33.8367 12.8876ZM32.2242 17.096C31.836 17.4571 31.3303 17.644 30.8006 17.6251C30.2707 17.6052 29.7797 17.3805 29.4188 16.9921C29.0999 16.6489 28.913 16.2016 28.891 15.7324C28.8638 15.1477 29.0945 14.584 29.5237 14.1851C29.9119 13.824 30.4176 13.6371 30.9474 13.656C31.4783 13.6759 31.9683 13.9006 32.3292 14.289C32.6481 14.6323 32.8349 15.0795 32.8569 15.5476C32.8831 16.1324 32.6533 16.6981 32.2242 17.096Z" fill="#383838"/>
<path d="M39.3355 11.9363C38.8823 10.8151 38.2391 9.81852 37.4232 8.97496C36.6096 8.1345 35.6363 7.45249 34.5323 6.94927C33.423 6.4451 32.1885 6.18917 30.8634 6.18917C29.5382 6.18917 28.2983 6.44388 27.1781 6.94819C26.0613 7.45128 25.0771 8.14433 24.2505 9.00956C23.4238 9.87493 22.7764 10.8823 22.3233 12.0025C21.87 13.1249 21.6401 14.3329 21.6401 15.594V15.6623C21.6401 16.9235 21.87 18.1325 22.3233 19.2538C22.7775 20.3773 23.4196 21.3727 24.2354 22.2142C25.0501 23.0567 26.0235 23.7378 27.1263 24.2398C28.2346 24.7441 29.4691 25 30.7954 25C32.1216 25 33.3615 24.7452 34.4806 24.2409C35.5963 23.7388 36.5816 23.0459 37.4071 22.1795C38.2337 21.3152 38.8823 20.3078 39.3355 19.1854C39.7887 18.0631 40.0185 16.854 40.0185 15.5928V15.5246C40.0185 14.2634 39.7887 13.0544 39.3355 11.9331M51.467 24.7838L46.7111 17.3632L42.1239 24.7838H39.6279L45.5643 15.5756L39.6953 6.36735H42.36L47.0484 13.6867L51.602 6.36735H54.0642L48.1952 15.4744L54.1317 24.7838H51.467ZM18.2135 14.1994C17.7215 13.7303 17.1361 13.3355 16.475 13.0279C16.0281 12.8201 15.5676 12.6394 15.0976 12.4894C15.3714 12.3476 15.6472 12.1892 15.9233 12.016C16.4164 11.7042 16.8643 11.3126 17.2535 10.8518C17.6449 10.3899 17.9659 9.83984 18.2062 9.21845C18.4476 8.59381 18.5702 7.85801 18.5702 7.03384V6.96777C18.5702 5.46553 18.0447 4.17546 17.008 3.13412C16.345 2.46859 15.4721 1.93951 14.4166 1.56371C13.3696 1.18896 12.1567 1 10.8106 1H1V24.7136H11.308C12.5838 24.7136 13.7536 24.5604 14.787 24.257C15.8256 23.9515 16.7311 23.5148 17.4791 22.9595C18.2345 22.3979 18.8274 21.6998 19.2396 20.8853C19.6529 20.0696 19.8628 19.1458 19.8628 18.1401V18.073C19.8628 17.2447 19.7096 16.5014 19.4085 15.8633C19.1095 15.2303 18.7077 14.6698 18.2135 14.1994ZM3.23051 13.8069H10.8295C13.0653 13.8069 14.7859 14.19 15.9422 14.9458C17.0793 15.6901 17.6323 16.7147 17.6323 18.0772V18.1433C17.6323 19.5342 17.092 20.6049 15.9809 21.4142C14.8593 22.232 13.316 22.6467 11.3929 22.6467H3.23051V13.8069ZM14.7523 10.5569C14.2488 10.9368 13.6424 11.2318 12.9457 11.4345C12.2427 11.638 11.4632 11.741 10.6312 11.741H3.23051V3.06589H10.796C12.6069 3.06589 14.0022 3.4459 14.9454 4.19644C15.8844 4.9428 16.3407 5.89912 16.3407 7.11999V7.1871C16.3407 7.92304 16.1991 8.58222 15.9191 9.14495C15.641 9.70652 15.2487 10.181 14.7523 10.5569ZM37.7244 15.6645C37.7244 16.6491 37.5517 17.5926 37.2107 18.4676C36.8719 19.3405 36.3938 20.1094 35.7917 20.7525C35.1907 21.3944 34.4579 21.9127 33.6151 22.2945C32.7745 22.675 31.8485 22.8681 30.8634 22.8681C29.8781 22.8681 28.9846 22.6804 28.1428 22.3106C27.3001 21.9409 26.5565 21.4214 25.9317 20.7675C25.308 20.1147 24.8138 19.3341 24.4619 18.4481C24.1113 17.5632 23.9332 16.6036 23.9332 15.5962V15.5278C23.9332 14.5432 24.1059 13.5999 24.4459 12.7257C24.7858 11.8518 25.2627 11.084 25.8659 10.441C26.4671 9.799 27.1986 9.27962 28.0425 8.89796C28.8832 8.51724 29.8091 8.3254 30.7954 8.3254C31.7816 8.3254 32.6741 8.51293 33.5148 8.88274C34.3575 9.25256 35.1011 9.77302 35.7259 10.4269C36.3496 11.0808 36.8448 11.8605 37.1956 12.7442C37.5463 13.6291 37.7244 14.5888 37.7244 15.5962V15.6645ZM33.8367 12.8876C33.1023 12.0962 32.1025 11.6385 31.023 11.5974C29.9444 11.5575 28.9141 11.9407 28.122 12.6756C27.2481 13.487 26.7791 14.6354 26.8336 15.828C26.8777 16.7822 27.2596 17.6922 27.9102 18.3935C28.6455 19.185 29.6433 19.6437 30.7239 19.6836C31.8024 19.7235 32.8339 19.3403 33.6249 18.6056C34.4988 17.794 34.9678 16.6446 34.9132 15.4532C34.8691 14.5 34.4862 13.5889 33.8367 12.8876ZM32.2242 17.096C31.836 17.4571 31.3303 17.644 30.8006 17.6251C30.2707 17.6052 29.7797 17.3805 29.4188 16.9921C29.0999 16.6489 28.913 16.2016 28.891 15.7324C28.8638 15.1477 29.0945 14.584 29.5237 14.1851C29.9119 13.824 30.4176 13.6371 30.9474 13.656C31.4783 13.6759 31.9683 13.9006 32.3292 14.289C32.6481 14.6323 32.8349 15.0795 32.8569 15.5476C32.8831 16.1324 32.6533 16.6981 32.2242 17.096Z" stroke="#383838" stroke-width="0.375"/>
<path d="M60.1318 1V25" stroke="#969696" stroke-linecap="round"/>
<path d="M67.368 20V11.2727H68.6421V14.5156H68.7188C68.7927 14.3793 68.8992 14.2216 69.0384 14.0426C69.1776 13.8636 69.3708 13.7074 69.618 13.5739C69.8651 13.4375 70.1919 13.3693 70.5981 13.3693C71.1265 13.3693 71.5981 13.5028 72.0129 13.7699C72.4276 14.0369 72.7529 14.4219 72.9887 14.9247C73.2274 15.4276 73.3467 16.0327 73.3467 16.7401C73.3467 17.4474 73.2288 18.054 72.993 18.5597C72.7572 19.0625 72.4333 19.4503 72.0214 19.723C71.6095 19.9929 71.1393 20.1278 70.6109 20.1278C70.2132 20.1278 69.8879 20.0611 69.635 19.9276C69.385 19.794 69.189 19.6378 69.047 19.4588C68.9049 19.2798 68.7955 19.1207 68.7188 18.9815H68.6123V20H67.368ZM68.6166 16.7273C68.6166 17.1875 68.6833 17.5909 68.8169 17.9375C68.9504 18.2841 69.1436 18.5554 69.3964 18.7514C69.6492 18.9446 69.9589 19.0412 70.3254 19.0412C70.7061 19.0412 71.0242 18.9403 71.2799 18.7386C71.5356 18.5341 71.7288 18.2571 71.8595 17.9077C71.993 17.5582 72.0597 17.1648 72.0597 16.7273C72.0597 16.2955 71.9944 15.9077 71.8637 15.5639C71.7359 15.2202 71.5427 14.9489 71.2842 14.75C71.0285 14.5511 70.7089 14.4517 70.3254 14.4517C69.9561 14.4517 69.6436 14.5469 69.3879 14.7372C69.135 14.9276 68.9433 15.1932 68.8126 15.5341C68.6819 15.875 68.6166 16.2727 68.6166 16.7273ZM75.3602 22.4545C75.1698 22.4545 74.9965 22.4389 74.8403 22.4077C74.684 22.3793 74.5676 22.348 74.4909 22.3139L74.7977 21.2699C75.0306 21.3324 75.238 21.3594 75.4198 21.3509C75.6017 21.3423 75.7622 21.2741 75.9014 21.1463C76.0434 21.0185 76.1684 20.8097 76.2764 20.5199L76.434 20.0852L74.0392 13.4545H75.4028L77.0605 18.5341H77.1286L78.7863 13.4545H80.1542L77.4568 20.8736C77.3318 21.2145 77.1727 21.5028 76.9795 21.7386C76.7863 21.9773 76.5562 22.1563 76.2892 22.2756C76.0221 22.3949 75.7124 22.4545 75.3602 22.4545ZM84.6297 20V11.2727H87.8257C88.445 11.2727 88.9578 11.375 89.3641 11.5795C89.7703 11.7812 90.0743 12.0554 90.276 12.402C90.4777 12.7457 90.5786 13.1335 90.5786 13.5653C90.5786 13.929 90.5118 14.2358 90.3783 14.4858C90.2448 14.733 90.0658 14.9318 89.8414 15.0824C89.6198 15.2301 89.3754 15.3381 89.1084 15.4062V15.4915C89.3982 15.5057 89.6808 15.5994 89.9564 15.7727C90.2348 15.9432 90.4649 16.1861 90.6468 16.5014C90.8286 16.8168 90.9195 17.2003 90.9195 17.652C90.9195 18.098 90.8144 18.4986 90.6041 18.8537C90.3968 19.206 90.0757 19.4858 89.6411 19.6932C89.2064 19.8977 88.651 20 87.9749 20H84.6297ZM85.9465 18.8707H87.847C88.4777 18.8707 88.9294 18.7486 89.2021 18.5043C89.4749 18.2599 89.6112 17.9545 89.6112 17.5881C89.6112 17.3125 89.5416 17.0597 89.4024 16.8295C89.2632 16.5994 89.0644 16.4162 88.8058 16.2798C88.5502 16.1435 88.2462 16.0753 87.8939 16.0753H85.9465V18.8707ZM85.9465 15.0483H87.7107C88.0061 15.0483 88.2718 14.9915 88.5075 14.8778C88.7462 14.7642 88.9351 14.6051 89.0743 14.4006C89.2164 14.1932 89.2874 13.9489 89.2874 13.6676C89.2874 13.3068 89.161 13.0043 88.9081 12.7599C88.6553 12.5156 88.2675 12.3935 87.7448 12.3935H85.9465V15.0483ZM95.1361 20.1321C94.5225 20.1321 93.9869 19.9915 93.5296 19.7102C93.0722 19.429 92.7171 19.0355 92.4642 18.5298C92.2114 18.0241 92.085 17.4332 92.085 16.7571C92.085 16.0781 92.2114 15.4844 92.4642 14.9759C92.7171 14.4673 93.0722 14.0724 93.5296 13.7912C93.9869 13.5099 94.5225 13.3693 95.1361 13.3693C95.7497 13.3693 96.2852 13.5099 96.7426 13.7912C97.2 14.0724 97.5551 14.4673 97.808 14.9759C98.0608 15.4844 98.1872 16.0781 98.1872 16.7571C98.1872 17.4332 98.0608 18.0241 97.808 18.5298C97.5551 19.0355 97.2 19.429 96.7426 19.7102C96.2852 19.9915 95.7497 20.1321 95.1361 20.1321ZM95.1404 19.0625C95.5381 19.0625 95.8676 18.9574 96.129 18.7472C96.3904 18.5369 96.5835 18.2571 96.7085 17.9077C96.8364 17.5582 96.9003 17.1733 96.9003 16.7528C96.9003 16.3352 96.8364 15.9517 96.7085 15.6023C96.5835 15.25 96.3904 14.9673 96.129 14.7543C95.8676 14.5412 95.5381 14.4347 95.1404 14.4347C94.7398 14.4347 94.4074 14.5412 94.1432 14.7543C93.8818 14.9673 93.6872 15.25 93.5594 15.6023C93.4344 15.9517 93.3719 16.3352 93.3719 16.7528C93.3719 17.1733 93.4344 17.5582 93.5594 17.9077C93.6872 18.2571 93.8818 18.5369 94.1432 18.7472C94.4074 18.9574 94.7398 19.0625 95.1404 19.0625ZM102.665 13.4545V14.4773H99.0896V13.4545H102.665ZM100.048 11.8864H101.323V18.0781C101.323 18.3253 101.359 18.5114 101.433 18.6364C101.507 18.7585 101.602 18.8423 101.719 18.8878C101.838 18.9304 101.967 18.9517 102.107 18.9517C102.209 18.9517 102.298 18.9446 102.375 18.9304C102.452 18.9162 102.511 18.9048 102.554 18.8963L102.784 19.9489C102.71 19.9773 102.605 20.0057 102.469 20.0341C102.332 20.0653 102.162 20.0824 101.957 20.0852C101.622 20.0909 101.31 20.0312 101.02 19.9062C100.73 19.7812 100.496 19.5881 100.317 19.3267C100.138 19.0653 100.048 18.7372 100.048 18.3423V11.8864ZM107.13 13.4545V14.4773H103.554V13.4545H107.13ZM104.513 11.8864H105.787V18.0781C105.787 18.3253 105.824 18.5114 105.898 18.6364C105.972 18.7585 106.067 18.8423 106.184 18.8878C106.303 18.9304 106.432 18.9517 106.571 18.9517C106.674 18.9517 106.763 18.9446 106.84 18.9304C106.917 18.9162 106.976 18.9048 107.019 18.8963L107.249 19.9489C107.175 19.9773 107.07 20.0057 106.934 20.0341C106.797 20.0653 106.627 20.0824 106.422 20.0852C106.087 20.0909 105.775 20.0312 105.485 19.9062C105.195 19.7812 104.961 19.5881 104.782 19.3267C104.603 19.0653 104.513 18.7372 104.513 18.3423V11.8864ZM109.954 11.2727V20H108.68V11.2727H109.954ZM114.489 20.1321C113.844 20.1321 113.289 19.9943 112.823 19.7188C112.36 19.4403 112.002 19.0497 111.749 18.5469C111.499 18.0412 111.374 17.4489 111.374 16.7699C111.374 16.0994 111.499 15.5085 111.749 14.9972C112.002 14.4858 112.354 14.0866 112.806 13.7997C113.26 13.5128 113.792 13.3693 114.4 13.3693C114.769 13.3693 115.127 13.4304 115.473 13.5526C115.82 13.6747 116.131 13.8665 116.407 14.1278C116.682 14.3892 116.9 14.7287 117.059 15.1463C117.218 15.5611 117.297 16.0653 117.297 16.6591V17.1108H112.094V16.1562H116.049C116.049 15.821 115.981 15.5241 115.844 15.2656C115.708 15.0043 115.516 14.7983 115.269 14.6477C115.025 14.4972 114.738 14.4219 114.408 14.4219C114.05 14.4219 113.738 14.5099 113.471 14.6861C113.206 14.8594 113.002 15.0866 112.857 15.3679C112.715 15.6463 112.644 15.9489 112.644 16.2756V17.0213C112.644 17.4588 112.721 17.831 112.874 18.1378C113.03 18.4446 113.248 18.679 113.526 18.8409C113.804 19 114.13 19.0795 114.502 19.0795C114.743 19.0795 114.964 19.0455 115.162 18.9773C115.361 18.9062 115.533 18.8011 115.678 18.6619C115.823 18.5227 115.934 18.3509 116.01 18.1463L117.216 18.3636C117.12 18.7187 116.946 19.0298 116.696 19.2969C116.449 19.5611 116.138 19.767 115.763 19.9148C115.391 20.0597 114.966 20.1321 114.489 20.1321Z" fill="#686868"/>
</svg>
