<svg width="137" height="139" viewBox="0 0 137 139" fill="none" xmlns="http://www.w3.org/2000/svg">
<rect x="1" y="2" width="135" height="135" rx="67.5" fill="white"/>
<path d="M130.057 43.2455C126.777 35.1993 122.123 28.0468 116.218 21.9928C110.33 15.961 103.287 11.0665 95.2978 7.45495C87.27 3.83667 78.3358 2 68.7465 2C59.1562 2 50.1832 3.82798 42.0768 7.44722C33.9947 11.0578 26.8723 16.0316 20.8903 22.2411C14.9083 28.4516 10.2228 35.6814 6.94361 43.7209C3.66339 51.7758 2 60.4451 2 69.4961V69.986C2 79.037 3.66339 87.7141 6.94361 95.7613C10.2306 103.824 14.8772 110.968 20.7816 117.007C26.6773 123.053 33.721 127.941 41.7022 131.544C49.7222 135.163 58.6564 137 68.2545 137C77.8515 137 86.8245 135.171 94.9232 131.552C102.998 127.949 110.128 122.976 116.102 116.758C122.084 110.555 126.777 103.325 130.057 95.2705C133.337 87.2156 135 78.5385 135 69.4874V68.9976C135 59.9466 133.337 51.2695 130.057 43.2223M118.398 70.0014C118.398 77.068 117.148 83.8388 114.68 90.1189C112.229 96.3835 108.769 101.901 104.411 106.517C100.062 111.123 94.7591 114.843 88.6597 117.583C82.5768 120.314 75.8756 121.7 68.7465 121.7C61.6164 121.7 55.1501 120.353 49.0584 117.699C42.9599 115.046 37.5786 111.317 33.0572 106.625C28.5435 101.94 24.9673 96.3371 22.4208 89.9788C19.883 83.6282 18.5942 76.7414 18.5942 69.5116V69.0208C18.5942 61.9543 19.8442 55.1844 22.3043 48.9111C24.7645 42.6388 28.2155 37.1287 32.5807 32.5143C36.9313 27.9067 42.2253 24.1792 48.3325 21.4402C54.4164 18.7079 61.1166 17.3311 68.2545 17.3311C75.3913 17.3311 81.8499 18.6769 87.9338 21.331C94.0323 23.985 99.4136 27.7202 103.935 32.4129C108.449 37.1055 112.033 42.7015 114.571 49.0434C117.109 55.394 118.398 62.2818 118.398 69.5116V70.0014Z" fill="#383838"/>
<path d="M90.2639 50.0728C84.949 44.3928 77.714 41.108 69.9015 40.8134C62.0957 40.5272 54.6398 43.277 48.9079 48.5511C42.5834 54.3742 39.1895 62.616 39.5839 71.1749C39.9028 78.0231 42.6664 84.5543 47.3747 89.5871C52.6962 95.2672 59.917 98.5594 67.737 98.8456C75.5419 99.1318 83.0063 96.382 88.7307 91.1089C95.0552 85.2848 98.4491 77.0355 98.0537 68.485C97.7348 61.6443 94.9637 55.1056 90.2639 50.0728ZM78.5943 80.2753C75.7854 82.867 72.1254 84.2083 68.2919 84.0726C64.4573 83.9295 60.9039 82.3171 58.2922 79.5299C55.9844 77.0663 54.6323 73.8564 54.4728 70.4893C54.2756 66.2927 55.9457 62.2475 59.0518 59.3846C61.8607 56.7929 65.5207 55.4517 69.3542 55.5873C73.1963 55.7304 76.7421 57.3429 79.3538 60.13C81.6617 62.5936 83.0138 65.8035 83.1733 69.1631C83.3629 73.3598 81.6994 77.4199 78.5943 80.2753Z" fill="#383838"/>
<path d="M130.057 43.2455C126.777 35.1993 122.123 28.0468 116.218 21.9928C110.33 15.961 103.287 11.0665 95.2978 7.45495C87.27 3.83667 78.3358 2 68.7465 2C59.1562 2 50.1832 3.82798 42.0768 7.44722C33.9947 11.0578 26.8723 16.0316 20.8903 22.2411C14.9083 28.4516 10.2228 35.6814 6.94361 43.7209C3.66339 51.7758 2 60.4451 2 69.4961V69.986C2 79.037 3.66339 87.7141 6.94361 95.7613C10.2306 103.824 14.8772 110.968 20.7816 117.007C26.6773 123.053 33.721 127.941 41.7022 131.544C49.7222 135.163 58.6564 137 68.2545 137C77.8515 137 86.8245 135.171 94.9232 131.552C102.998 127.949 110.128 122.976 116.102 116.758C122.084 110.555 126.777 103.325 130.057 95.2705C133.337 87.2156 135 78.5385 135 69.4874V68.9976C135 59.9466 133.337 51.2695 130.057 43.2223M118.398 70.0014C118.398 77.068 117.148 83.8388 114.68 90.1189C112.229 96.3835 108.769 101.901 104.411 106.517C100.062 111.123 94.7591 114.843 88.6597 117.583C82.5768 120.314 75.8756 121.7 68.7465 121.7C61.6164 121.7 55.1501 120.353 49.0584 117.699C42.9599 115.046 37.5786 111.317 33.0572 106.625C28.5435 101.94 24.9673 96.3371 22.4208 89.9788C19.883 83.6282 18.5942 76.7414 18.5942 69.5116V69.0208C18.5942 61.9543 19.8442 55.1844 22.3043 48.9111C24.7645 42.6388 28.2155 37.1287 32.5807 32.5143C36.9313 27.9067 42.2253 24.1792 48.3325 21.4402C54.4164 18.7079 61.1166 17.3311 68.2545 17.3311C75.3913 17.3311 81.8499 18.6769 87.9338 21.331C94.0323 23.985 99.4136 27.7202 103.935 32.4129C108.449 37.1055 112.033 42.7015 114.571 49.0434C117.109 55.394 118.398 62.2818 118.398 69.5116V70.0014ZM90.2639 50.0728C84.949 44.3928 77.714 41.108 69.9015 40.8134C62.0957 40.5272 54.6398 43.277 48.9079 48.5511C42.5834 54.3742 39.1895 62.616 39.5839 71.1749C39.9028 78.0231 42.6664 84.5543 47.3747 89.5871C52.6962 95.2672 59.917 98.5594 67.737 98.8456C75.5419 99.1318 83.0063 96.382 88.7307 91.1089C95.0552 85.2848 98.4491 77.0355 98.0537 68.485C97.7348 61.6443 94.9637 55.1056 90.2639 50.0728ZM78.5943 80.2753C75.7854 82.867 72.1254 84.2083 68.2919 84.0726C64.4573 83.9295 60.9039 82.3171 58.2922 79.5299C55.9844 77.0663 54.6323 73.8564 54.4728 70.4893C54.2756 66.2927 55.9457 62.2475 59.0518 59.3846C61.8607 56.7929 65.5207 55.4517 69.3542 55.5873C73.1963 55.7304 76.7421 57.3429 79.3538 60.13C81.6617 62.5936 83.0138 65.8035 83.1733 69.1631C83.3629 73.3598 81.6994 77.4199 78.5943 80.2753Z" stroke="#383838" stroke-width="2.10938"/>
</svg>
